<?xml version="1.0" encoding="UTF-8" standalone="no"?>
<!-- Created with Inkscape (http://www.inkscape.org/) -->

<svg
   xmlns:dc="http://purl.org/dc/elements/1.1/"
   xmlns:cc="http://creativecommons.org/ns#"
   xmlns:rdf="http://www.w3.org/1999/02/22-rdf-syntax-ns#"
   xmlns:svg="http://www.w3.org/2000/svg"
   xmlns="http://www.w3.org/2000/svg"
   xmlns:sodipodi="http://sodipodi.sourceforge.net/DTD/sodipodi-0.dtd"
   xmlns:inkscape="http://www.inkscape.org/namespaces/inkscape"
   width="196.36636in"
   height="48.274887in"
   viewBox="0 0 5486.4755 1348.8004"
   version="1.1"
   id="svg8442"
   inkscape:version="0.92.3 (2405546, 2018-03-11)"
   sodipodi:docname="ot-logo-path.svg"
   inkscape:export-filename="D:\Cathrin Blank\Logos\ot-logo-v1-2.png"
   inkscape:export-xdpi="90"
   inkscape:export-ydpi="90">
  <defs
     id="defs8436">
    <inkscape:path-effect
       effect="bspline"
       id="path-effect12959"
       is_visible="true"
       weight="33.333333"
       steps="2"
       helper_size="0"
       apply_no_weight="true"
       apply_with_weight="true"
       only_selected="false" />
    <inkscape:path-effect
       effect="bspline"
       id="path-effect12955"
       is_visible="true"
       weight="33.333333"
       steps="2"
       helper_size="0"
       apply_no_weight="true"
       apply_with_weight="true"
       only_selected="false" />
    <inkscape:path-effect
       effect="bspline"
       id="path-effect12951"
       is_visible="true"
       weight="33.333333"
       steps="2"
       helper_size="0"
       apply_no_weight="true"
       apply_with_weight="true"
       only_selected="false" />
  </defs>
  <sodipodi:namedview
     id="base"
     pagecolor="#ffffff"
     bordercolor="#666666"
     borderopacity="1.0"
     inkscape:pageopacity="0"
     inkscape:pageshadow="2"
     inkscape:zoom="0.021172161"
     inkscape:cx="8763.7387"
     inkscape:cy="2576.3202"
     inkscape:document-units="mm"
     inkscape:current-layer="layer1"
     showgrid="false"
     inkscape:pagecheckerboard="true"
     units="in"
     inkscape:showpageshadow="true"
     borderlayer="false"
     inkscape:window-width="1920"
     inkscape:window-height="1017"
     inkscape:window-x="-8"
     inkscape:window-y="-8"
     inkscape:window-maximized="1"
     inkscape:snap-text-baseline="true"
     scale-x="1.1"
     fit-margin-top="0"
     fit-margin-left="0"
     fit-margin-right="0"
     fit-margin-bottom="0"
     showguides="true"
     inkscape:guide-bbox="true" />
  <metadata
     id="metadata8439">
    <rdf:RDF>
      <cc:Work
         rdf:about="">
        <dc:format>image/svg+xml</dc:format>
        <dc:type
           rdf:resource="http://purl.org/dc/dcmitype/StillImage" />
        <dc:title></dc:title>
      </cc:Work>
    </rdf:RDF>
  </metadata>
  <g
     inkscape:label="Ebene 1"
     inkscape:groupmode="layer"
     id="layer1"
     transform="translate(5702.9085,912.67211)">
    <rect
       style="opacity:1;fill:#5aa897;fill-opacity:1;fill-rule:nonzero;stroke:#b3b3b3;stroke-width:1.64999998;stroke-linecap:round;stroke-linejoin:round;stroke-miterlimit:4;stroke-dasharray:none;stroke-opacity:1"
       id="rect4398"
       width="5484.8262"
       height="1347.1503"
       x="-5702.0835"
       y="-911.84711"
       rx="0.84524029"
       ry="0.93549222" />
    <text
       xml:space="preserve"
       style="font-style:normal;font-weight:normal;font-size:10.58333302px;line-height:6.61458302px;font-family:sans-serif;letter-spacing:0px;word-spacing:0px;fill:#000000;fill-opacity:1;stroke:none;stroke-width:0.26458332"
       x="2183.7122"
       y="894.49725"
       id="text12945"><tspan
         sodipodi:role="line"
         id="tspan12943"
         x="2183.7122"
         y="900.55371"
         style="stroke-width:0.26458332" /></text>
    <g
       aria-label="ohnetattoo.com"
       transform="matrix(0.7715079,0,0,0.7715079,1479.2455,-3360.8974)"
       style="font-style:normal;font-weight:normal;font-size:40px;line-height:25px;font-family:sans-serif;letter-spacing:0px;word-spacing:0px;opacity:1;fill:#ffffff;fill-opacity:1;stroke:none;stroke-width:93.10338593;stroke-miterlimit:4;stroke-dasharray:none;stroke-dashoffset:0;stroke-opacity:1"
       id="flowRoot4755">
      <path
         d="m -8775.7754,4597.1789 q -28.6458,0 -58.5937,-4.5573 -29.2969,-4.5573 -57.2917,-18.8802 -27.3438,-14.3229 -52.0833,-41.0156 -24.0886,-26.6927 -42.3177,-70.3125 -18.2292,-43.6198 -28.6459,-107.4219 -10.4166,-63.8021 -10.4166,-152.3437 v -140.625 q 0,-87.2396 10.4166,-149.0886 11.0677,-62.5 29.2969,-104.8177 18.8802,-42.3177 43.6198,-67.0573 24.7396,-25.3906 52.0833,-38.4115 27.9948,-13.6718 57.2917,-17.5781 29.2969,-4.5573 57.2917,-4.5573 26.6927,0 55.3385,3.9063 28.6458,3.9062 55.9896,16.9271 27.3437,12.3698 51.4323,37.7604 24.7396,24.7396 42.9687,67.0573 18.8802,42.3177 29.2969,105.4687 11.0677,62.5 11.0677,150.3907 v 140.625 q 0,87.2395 -11.0677,150.3906 -11.0677,63.151 -29.9479,106.7708 -18.8802,43.6198 -43.6198,70.9636 -24.7396,26.6927 -52.0833,41.6666 -27.3438,14.974 -55.9896,19.5313 -27.9948,5.2083 -54.0365,5.2083 z m 1.3021,-126.9531 q 22.1354,0 37.1094,-11.0677 15.625,-11.7188 24.7396,-37.7604 9.7656,-26.0417 13.6718,-68.3594 4.5573,-42.9688 4.5573,-106.1198 v -220.7031 q 0,-63.1511 -4.5573,-106.1198 -3.9062,-42.9688 -13.6718,-69.0104 -9.1146,-26.6928 -24.7396,-38.4115 -14.974,-11.7188 -37.1094,-11.7188 -23.4375,0 -39.7135,11.7188 -15.625,11.7187 -26.0417,38.4115 -10.4167,26.0416 -14.974,69.0104 -4.5573,42.9687 -4.5573,106.1198 v 220.7031 q 0,63.151 4.5573,106.1198 4.5573,42.3177 14.974,68.3594 10.4167,26.0416 26.0417,37.7604 16.276,11.0677 39.7135,11.0677 z"
         style="font-style:normal;font-variant:normal;font-weight:normal;font-stretch:normal;font-size:1333.33337402px;font-family:'Fjalla One';-inkscape-font-specification:'Fjalla One';fill:#ffffff;stroke:none;stroke-width:93.10338593;stroke-miterlimit:4;stroke-dasharray:none;stroke-dashoffset:0;stroke-opacity:1"
         id="path4337"
         inkscape:connector-curvature="0" />
      <path
         d="m -8381.8952,3403.1685 h 164.7136 v 210.9375 l -8.4636,153.6458 q 18.2292,-25.3906 39.0625,-41.6667 21.4844,-16.927 43.6198,-26.6927 22.7865,-10.4166 45.573,-14.3229 23.4375,-4.5573 46.2239,-4.5573 78.7761,0 121.0938,55.3386 42.9687,54.6875 42.9687,164.7135 v 686.849 h -164.7135 v -680.9896 q 0,-59.2448 -18.2292,-82.0313 -18.2292,-23.4375 -53.3854,-23.4375 -24.7396,0 -50.1302,16.9271 -24.7396,16.2761 -43.6198,45.5729 v 723.9584 h -164.7136 z"
         style="font-style:normal;font-variant:normal;font-weight:normal;font-stretch:normal;font-size:1333.33337402px;font-family:'Fjalla One';-inkscape-font-specification:'Fjalla One';fill:#ffffff;stroke:none;stroke-width:93.10338593;stroke-miterlimit:4;stroke-dasharray:none;stroke-dashoffset:0;stroke-opacity:1"
         id="path4339"
         inkscape:connector-curvature="0" />
      <path
         d="m -7715.2285,3690.9289 h 126.9532 l 14.9739,95.7031 v 0.6511 q 19.5313,-30.599 41.6667,-50.7813 22.7864,-20.8333 46.875,-33.2031 24.0885,-12.3698 48.8281,-17.5781 25.3906,-5.2084 50.1302,-5.2084 78.7761,0 121.0938,55.3386 42.9687,54.6875 42.9687,164.7135 v 686.849 h -164.7135 v -680.9896 q 0,-59.2448 -18.2292,-82.0313 -18.2292,-23.4375 -53.3854,-23.4375 -24.7396,0 -49.4792,16.2761 -24.0885,16.276 -42.9687,44.9219 v 725.2604 h -164.7136 z"
         style="font-style:normal;font-variant:normal;font-weight:normal;font-stretch:normal;font-size:1333.33337402px;font-family:'Fjalla One';-inkscape-font-specification:'Fjalla One';fill:#ffffff;stroke:none;stroke-width:93.10338593;stroke-miterlimit:4;stroke-dasharray:none;stroke-dashoffset:0;stroke-opacity:1"
         id="path4341"
         inkscape:connector-curvature="0" />
      <path
         d="m -6835.0201,4597.1789 q -57.9427,0 -102.8646,-21.4844 -44.2709,-21.4843 -74.8698,-67.0572 -30.599,-45.573 -46.224,-116.5365 -15.625,-71.6146 -15.625,-171.875 v -169.2709 q 0,-85.2864 12.3698,-145.8333 13.0209,-61.1979 33.2031,-102.2135 20.8334,-41.6667 47.5261,-65.7552 27.3437,-24.0886 55.9896,-36.4584 28.6458,-13.0208 56.6406,-16.276 28.6458,-3.9063 52.7344,-3.9063 44.2708,0 85.2864,13.6719 41.0157,13.0208 72.2657,45.5729 31.25,31.9011 49.4791,85.9375 18.8802,54.0365 18.8802,134.7657 0,27.3437 -1.9531,55.3385 -1.3021,27.9948 -3.9062,55.3385 -2.6042,26.6927 -7.1615,52.0834 -3.9062,25.3906 -8.4635,46.875 h -297.5261 v 91.1458 q 0,58.5938 4.5573,98.9583 4.5573,39.7136 14.974,64.4532 11.0677,24.0885 29.2968,35.1562 18.8803,10.4167 46.875,10.4167 14.974,0 29.2969,-5.8594 14.3229,-6.5104 24.7396,-20.8333 11.0677,-14.3229 17.5781,-37.7604 6.5104,-24.0886 6.5104,-59.2448 v -27.9948 h 137.3698 v 34.5052 q 0,127.6042 -61.1979,186.1979 -60.5469,57.9427 -175.7812,57.9427 z m 91.1458,-537.7604 q 0.651,-7.1615 1.3021,-18.8802 0.651,-12.3698 0.651,-25.3906 0.6511,-13.0209 0.6511,-25.3907 0,-13.0208 0,-22.1354 0,-88.5417 -20.8334,-127.6042 -20.8333,-39.0625 -61.8489,-39.0625 -21.4844,0 -37.7604,10.4167 -16.2761,9.7656 -26.6928,33.8542 -10.4166,23.4375 -15.625,62.5 -5.2083,39.0625 -5.2083,97.0052 v 54.6875 z"
         style="font-style:normal;font-variant:normal;font-weight:normal;font-stretch:normal;font-size:1333.33337402px;font-family:'Fjalla One';-inkscape-font-specification:'Fjalla One';fill:#ffffff;stroke:none;stroke-width:93.10338593;stroke-miterlimit:4;stroke-dasharray:none;stroke-dashoffset:0;stroke-opacity:1"
         id="path4343"
         inkscape:connector-curvature="0" />
      <path
         d="m -6430.7231,3808.1164 h -69.6615 v -117.1875 h 83.9844 l 33.2031,-232.4219 h 117.1875 v 232.4219 h 143.2292 v 117.1875 h -143.2292 v 570.3125 q 0,29.2969 5.2083,47.5261 5.8594,17.5781 15.625,27.9948 9.7657,9.7656 22.7865,13.0208 13.0208,3.2552 27.3437,3.2552 24.0886,0 42.3178,-5.8594 18.8802,-5.8594 35.8073,-16.276 v 91.1458 q -14.323,17.5781 -31.25,28.6458 -16.2761,11.0678 -33.8542,18.2292 -17.5781,6.5104 -35.8073,9.1146 -18.2292,2.6042 -35.8073,2.6042 -34.5052,0 -66.4063,-9.1146 -31.901,-9.1146 -56.6406,-34.5052 -24.7396,-26.0417 -39.7135,-71.6146 -14.3229,-45.5729 -14.3229,-118.4896 z"
         style="stroke:#ffffff;stroke-width:93.10338593;stroke-miterlimit:4;stroke-dasharray:none"
         id="path4345"
         inkscape:connector-curvature="0" />
      <path
         d="m -5885.8014,4597.1789 q -41.6667,0 -74.2188,-16.276 -31.901,-16.9271 -54.0364,-45.5729 -22.1355,-28.6459 -33.8542,-67.7084 -11.0677,-39.7135 -11.0677,-85.9375 0,-55.3385 13.6719,-98.3073 13.6718,-42.9687 39.7135,-77.4739 26.6927,-34.5052 65.7552,-62.5 39.0625,-28.6459 90.4948,-54.0365 24.7396,-12.3698 55.3386,-24.7396 31.25,-13.0208 55.3385,-22.1354 v -118.4896 q 0,-26.0416 -1.9531,-48.1771 -1.9532,-22.7864 -9.7657,-39.0625 -7.1614,-16.9271 -22.1354,-26.0416 -14.9739,-9.7657 -41.0156,-9.7657 -17.5781,0 -34.5052,6.5105 -16.2761,6.5104 -29.2969,22.1354 -12.3698,15.625 -20.1823,41.6666 -7.1614,26.0417 -7.1614,64.4532 v 39.0625 h -125.6511 q -5.8594,-25.3907 -9.1146,-46.224 -2.6041,-21.4844 -2.6041,-42.3177 0,-50.1302 16.9271,-88.5417 17.5781,-38.4114 48.177,-64.4531 31.25,-26.0417 74.2188,-39.0625 42.9687,-13.6719 94.401,-13.6719 67.0573,0 111.3282,14.974 44.2708,14.3229 70.3125,43.6198 26.6927,29.2969 37.1093,73.5677 11.0678,44.2708 11.0678,103.5156 v 671.224 h -122.3959 l -11.7187,-76.8229 q -26.6927,38.4114 -71.6146,62.5 -44.2709,24.0885 -101.5625,24.0885 z m 72.9166,-126.9531 q 20.8334,0 40.3646,-10.4167 20.1823,-11.0677 33.8542,-26.6927 v -280.5989 q -13.0208,5.2083 -29.2969,12.3697 -16.276,7.1615 -35.1562,18.8803 -17.5782,11.0677 -34.5052,26.6927 -16.9271,15.625 -30.599,37.1093 -13.0208,21.4844 -21.4844,48.8282 -7.8125,26.6927 -7.8125,59.8958 0,51.4323 20.1823,82.6823 20.1823,31.25 64.4531,31.25 z"
         style="stroke:#ffffff;stroke-width:93.10338593;stroke-miterlimit:4;stroke-dasharray:none"
         id="path4347"
         inkscape:connector-curvature="0" />
      <path
         d="m -5389.0566,3808.1164 h -69.6615 v -117.1875 h 83.9844 l 33.2031,-232.4219 h 117.1875 v 232.4219 h 143.2292 v 117.1875 h -143.2292 v 570.3125 q 0,29.2969 5.2083,47.5261 5.8594,17.5781 15.625,27.9948 9.7657,9.7656 22.7865,13.0208 13.0208,3.2552 27.3438,3.2552 24.0885,0 42.3177,-5.8594 18.8802,-5.8594 35.8073,-16.276 v 91.1458 q -14.323,17.5781 -31.25,28.6458 -16.2761,11.0678 -33.8542,18.2292 -17.5781,6.5104 -35.8073,9.1146 -18.2292,2.6042 -35.8073,2.6042 -34.5052,0 -66.4063,-9.1146 -31.901,-9.1146 -56.6406,-34.5052 -24.7396,-26.0417 -39.7135,-71.6146 -14.3229,-45.5729 -14.3229,-118.4896 z"
         style="stroke:#ffffff;stroke-width:93.10338593;stroke-miterlimit:4;stroke-dasharray:none"
         id="path4349"
         inkscape:connector-curvature="0" />
      <path
         d="m -4948.9524,3808.1164 h -69.6614 v -117.1875 h 83.9843 l 33.2032,-232.4219 h 117.1875 v 232.4219 h 143.2291 v 117.1875 h -143.2291 v 570.3125 q 0,29.2969 5.2083,47.5261 5.8594,17.5781 15.625,27.9948 9.7656,9.7656 22.7865,13.0208 13.0208,3.2552 27.3437,3.2552 24.0885,0 42.3177,-5.8594 18.8802,-5.8594 35.8073,-16.276 v 91.1458 q -14.3229,17.5781 -31.25,28.6458 -16.276,11.0678 -33.8542,18.2292 -17.5781,6.5104 -35.8073,9.1146 -18.2291,2.6042 -35.8073,2.6042 -34.5052,0 -66.4062,-9.1146 -31.901,-9.1146 -56.6406,-34.5052 -24.7396,-26.0417 -39.7136,-71.6146 -14.3229,-45.5729 -14.3229,-118.4896 z"
         style="stroke:#ffffff;stroke-width:93.10338593;stroke-miterlimit:4;stroke-dasharray:none"
         id="path4351"
         inkscape:connector-curvature="0" />
      <path
         d="m -4301.8169,4597.1789 q -28.6458,0 -58.5937,-4.5573 -29.2969,-4.5573 -57.2917,-18.8802 -27.3438,-14.3229 -52.0833,-41.0156 -24.0886,-26.6927 -42.3177,-70.3125 -18.2292,-43.6198 -28.6459,-107.4219 -10.4167,-63.8021 -10.4167,-152.3437 v -140.625 q 0,-87.2396 10.4167,-149.0886 11.0677,-62.5 29.2969,-104.8177 18.8802,-42.3177 43.6198,-67.0573 24.7396,-25.3906 52.0833,-38.4115 27.9948,-13.6718 57.2917,-17.5781 29.2969,-4.5573 57.2917,-4.5573 26.6927,0 55.3385,3.9063 28.6458,3.9062 55.9896,16.9271 27.3437,12.3698 51.4323,37.7604 24.7396,24.7396 42.9687,67.0573 18.8802,42.3177 29.2969,105.4687 11.0677,62.5 11.0677,150.3907 v 140.625 q 0,87.2395 -11.0677,150.3906 -11.0677,63.151 -29.9479,106.7708 -18.8802,43.6198 -43.6198,70.9636 -24.7396,26.6927 -52.0833,41.6666 -27.3438,14.974 -55.9896,19.5313 -27.9948,5.2083 -54.0365,5.2083 z m 1.3021,-126.9531 q 22.1354,0 37.1094,-11.0677 15.625,-11.7188 24.7396,-37.7604 9.7656,-26.0417 13.6718,-68.3594 4.5573,-42.9688 4.5573,-106.1198 v -220.7031 q 0,-63.1511 -4.5573,-106.1198 -3.9062,-42.9688 -13.6718,-69.0104 -9.1146,-26.6928 -24.7396,-38.4115 -14.974,-11.7188 -37.1094,-11.7188 -23.4375,0 -39.7135,11.7188 -15.625,11.7187 -26.0417,38.4115 -10.4167,26.0416 -14.974,69.0104 -4.5573,42.9687 -4.5573,106.1198 v 220.7031 q 0,63.151 4.5573,106.1198 4.5573,42.3177 14.974,68.3594 10.4167,26.0416 26.0417,37.7604 16.276,11.0677 39.7135,11.0677 z"
         style="stroke:#ffffff;stroke-width:93.10338593;stroke-miterlimit:4;stroke-dasharray:none"
         id="path4353"
         inkscape:connector-curvature="0" />
      <path
         d="m -3682.0254,4597.1789 q -28.6458,0 -58.5937,-4.5573 -29.2969,-4.5573 -57.2917,-18.8802 -27.3438,-14.3229 -52.0833,-41.0156 -24.0886,-26.6927 -42.3177,-70.3125 -18.2292,-43.6198 -28.6459,-107.4219 -10.4166,-63.8021 -10.4166,-152.3437 v -140.625 q 0,-87.2396 10.4166,-149.0886 11.0677,-62.5 29.2969,-104.8177 18.8802,-42.3177 43.6198,-67.0573 24.7396,-25.3906 52.0833,-38.4115 27.9948,-13.6718 57.2917,-17.5781 29.2969,-4.5573 57.2917,-4.5573 26.6927,0 55.3385,3.9063 28.6458,3.9062 55.9896,16.9271 27.3437,12.3698 51.4323,37.7604 24.7396,24.7396 42.9687,67.0573 18.8802,42.3177 29.2969,105.4687 11.0677,62.5 11.0677,150.3907 v 140.625 q 0,87.2395 -11.0677,150.3906 -11.0677,63.151 -29.9479,106.7708 -18.8802,43.6198 -43.6198,70.9636 -24.7396,26.6927 -52.0833,41.6666 -27.3438,14.974 -55.9896,19.5313 -27.9948,5.2083 -54.0365,5.2083 z m 1.3021,-126.9531 q 22.1354,0 37.1094,-11.0677 15.625,-11.7188 24.7396,-37.7604 9.7656,-26.0417 13.6718,-68.3594 4.5573,-42.9688 4.5573,-106.1198 v -220.7031 q 0,-63.1511 -4.5573,-106.1198 -3.9062,-42.9688 -13.6718,-69.0104 -9.1146,-26.6928 -24.7396,-38.4115 -14.974,-11.7188 -37.1094,-11.7188 -23.4375,0 -39.7135,11.7188 -15.625,11.7187 -26.0417,38.4115 -10.4167,26.0416 -14.974,69.0104 -4.5573,42.9687 -4.5573,106.1198 v 220.7031 q 0,63.151 4.5573,106.1198 4.5573,42.3177 14.974,68.3594 10.4167,26.0416 26.0417,37.7604 16.276,11.0677 39.7135,11.0677 z"
         style="stroke:#ffffff;stroke-width:93.10338593;stroke-miterlimit:4;stroke-dasharray:none"
         id="path4355"
         inkscape:connector-curvature="0" />
      <path
         d="m -3350.4309,4543.4514 q 0,-26.0333 10.3151,-37.3308 10.315,-11.2975 27.9981,-11.2975 18.4197,0 28.4892,12.0343 10.0695,12.0343 10.0695,36.594 0,22.5949 -10.3151,35.1204 -10.0694,12.2799 -28.4892,12.2799 -17.4375,0 -27.7525,-12.0343 -10.3151,-12.0343 -10.3151,-35.366 z"
         style="font-size:502.98321533px;line-height:16.7757473px;stroke-width:93.10338593;stroke-miterlimit:4;stroke-dasharray:none"
         id="path4357"
         inkscape:connector-curvature="0" />
      <path
         d="m -3139.2176,4591.0973 q -42.7339,0 -65.3288,-35.1205 -22.3494,-35.1204 -22.3494,-107.0804 v -63.8553 q 0,-32.1732 4.6664,-55.0137 4.6663,-23.0862 12.2798,-38.5588 7.8591,-15.7182 17.683,-24.8053 10.0695,-9.0871 20.6302,-13.7535 10.5607,-4.9119 20.8758,-6.1399 10.3151,-1.4736 18.911,-1.4736 17.1918,0 31.4364,4.6663 14.2446,4.4208 24.5597,13.7535 10.3151,9.0871 15.9639,23.0861 5.6487,13.9991 5.6487,32.9101 0,11.7886 -1.228,20.3845 -0.9824,8.3504 -2.9472,16.2095 h -49.6106 v -11.2975 q 0,-25.5421 -6.1399,-39.7868 -5.8944,-14.4902 -19.6478,-14.4902 -7.6135,0 -13.2623,3.684 -5.6487,3.4383 -9.5783,12.0342 -3.6839,8.5959 -5.6487,23.0862 -1.7192,14.4902 -1.7192,36.3484 v 96.0285 q 0,22.1037 1.4736,37.5764 1.4736,15.4726 5.1575,25.2965 3.684,9.5783 9.8239,13.999 6.14,4.4208 15.2271,4.4208 4.6663,0 9.0871,-2.2104 4.4207,-2.456 7.6135,-7.8591 3.4383,-5.4031 5.4031,-14.2446 2.2104,-9.0871 2.2104,-22.3494 v -10.5607 h 53.5402 v 13.0167 q 0,48.137 -21.367,70.2408 -21.1213,21.8582 -63.3641,21.8582 z"
         style="font-size:502.98321533px;line-height:16.7757473px;stroke-width:93.10338593;stroke-miterlimit:4;stroke-dasharray:none"
         id="path4359"
         inkscape:connector-curvature="0" />
      <path
         d="m -2918.6709,4591.0973 q -10.8063,0 -22.1038,-1.7192 -11.0518,-1.7192 -21.6125,-7.1223 -10.3151,-5.4032 -19.6478,-15.4727 -9.0871,-10.0695 -15.9638,-26.5245 -6.8767,-16.455 -10.8063,-40.5235 -3.9296,-24.0686 -3.9296,-57.4698 v -53.049 q 0,-32.91 3.9296,-56.2418 4.1752,-23.5773 11.0519,-39.5411 7.1223,-15.9639 16.455,-25.2966 9.3327,-9.5783 19.6478,-14.4902 10.5607,-5.1575 21.6125,-6.6311 11.0519,-1.7192 21.6126,-1.7192 10.0695,0 20.8758,1.4736 10.8062,1.4736 21.1213,6.3855 10.3151,4.6664 19.4022,14.2447 9.3327,9.3326 16.2094,25.2965 7.1224,15.9638 11.0519,39.7867 4.1752,23.5774 4.1752,56.733 v 53.049 q 0,32.91 -4.1752,56.733 -4.1751,23.8229 -11.2975,40.2779 -7.1223,16.455 -16.455,26.7701 -9.3327,10.0695 -19.6478,15.7183 -10.315,5.6487 -21.1213,7.3679 -10.5607,1.9648 -20.3846,1.9648 z m 0.4912,-47.8915 q 8.3503,0 13.999,-4.1752 5.8944,-4.4207 9.3327,-14.2446 3.684,-9.8239 5.1576,-25.7877 1.7192,-16.2094 1.7192,-40.0324 v -83.2575 q 0,-23.8229 -1.7192,-40.0323 -1.4736,-16.2094 -5.1576,-26.0333 -3.4383,-10.0695 -9.3327,-14.4903 -5.6487,-4.4207 -13.999,-4.4207 -8.8415,0 -14.9814,4.4207 -5.8944,4.4208 -9.8239,14.4903 -3.9296,9.8239 -5.6488,26.0333 -1.7191,16.2094 -1.7191,40.0323 v 83.2575 q 0,23.823 1.7191,40.0324 1.7192,15.9638 5.6488,25.7877 3.9295,9.8239 9.8239,14.2446 6.1399,4.1752 14.9814,4.1752 z"
         style="font-size:502.98321533px;line-height:16.7757473px;stroke-width:93.10338593;stroke-miterlimit:4;stroke-dasharray:none"
         id="path4361"
         inkscape:connector-curvature="0" />
      <path
         d="m -2770.0846,4249.2259 h 48.1371 l 5.4031,36.1028 v 0.2455 q 7.368,-11.543 15.7183,-19.1565 8.3503,-7.8592 17.1918,-12.5255 9.0871,-4.6663 18.4198,-6.6311 9.5783,-1.9648 18.911,-1.9648 19.8933,0 33.6468,9.5783 13.7534,9.5783 20.8758,28.7349 7.3679,-11.0519 15.4726,-18.4198 8.3503,-7.3679 17.1918,-11.7887 8.8415,-4.4207 17.9286,-6.1399 9.0871,-1.9648 18.4198,-1.9648 29.4717,0 45.4355,20.8758 16.2094,20.6301 16.2094,62.1361 v 259.1051 h -62.1361 v -256.8947 q 0,-11.0519 -1.7192,-18.6654 -1.7192,-7.6136 -5.1575,-12.2799 -3.4384,-4.6664 -8.8415,-6.6311 -5.4032,-2.2104 -13.0167,-2.2104 -8.5959,0 -17.1918,6.3855 -8.5959,6.14 -15.7182,17.1918 0.2456,2.2104 0.2456,4.4208 0,2.2104 0,4.4207 v 264.2627 h -62.1361 v -256.8947 q 0,-11.0519 -1.7192,-18.6654 -1.7192,-7.6136 -5.1576,-12.2799 -3.4383,-4.6664 -8.8415,-6.6311 -5.4031,-2.2104 -13.0166,-2.2104 -8.3503,0 -16.9462,6.1399 -8.5959,6.14 -15.4727,16.9462 v 273.5954 h -62.1361 z"
         style="font-size:502.98321533px;line-height:16.7757473px;stroke-width:93.10338593;stroke-miterlimit:4;stroke-dasharray:none"
         id="path4363"
         inkscape:connector-curvature="0" />
    </g>
  </g>
</svg>
